<svg preserveAspectRatio="xMidYMid meet" version="1.1" xmlns="http://www.w3.org/2000/svg" style="display: block;" viewBox="0 0 2048 2048" width="512" height="512">
<defs>
	<linearGradient id="Gradient1" gradientUnits="userSpaceOnUse" x1="782.43" y1="1465.42" x2="670.176" y2="1361.13">
		<stop class="stop0" offset="0" stop-opacity="1" stop-color="rgb(184,92,32)"/>
		<stop class="stop1" offset="1" stop-opacity="1" stop-color="rgb(230,127,49)"/>
	</linearGradient>
</defs>
<path transform="translate(0,0)" fill="rgb(236,147,59)" d="M 770.406 748.97 C 794.629 769.607 815.916 795.008 838.256 817.741 L 995.082 977.411 C 1005.26 988.035 1014.93 999.208 1026.85 1007.93 C 1038.81 992.895 1052.31 979.233 1065.56 965.352 L 1245.26 781.15 C 1255.64 770.598 1265.4 759.422 1275.87 748.97 C 1293.44 763.668 1309.93 781.326 1325.49 798.142 C 1331.8 804.482 1337.97 810.746 1345.27 815.984 L 1345.27 815.984 C 1353.43 824.513 1360.98 833.724 1368.93 842.485 C 1358.83 854.926 1346.55 866.144 1335.42 877.696 L 1267.11 948.18 C 1217.37 999.683 1169.53 1053.07 1118.2 1103.02 C 1124.23 1113.16 1135.41 1122.45 1143.73 1130.89 L 1462.69 1456.16 C 1474.87 1468.51 1490.39 1479.95 1499.31 1494.91 C 1512.18 1503.38 1554.64 1546.41 1563.21 1559.13 C 1585.37 1592.01 1573.21 1642.43 1539.42 1662.83 L 1538.62 1663.37 C 1476.28 1705.24 1432.07 1641.79 1395.75 1602.05 L 1158.12 1348.07 C 1130.68 1318.76 1044.33 1235.79 1026.85 1209.29 L 1008.02 1227.7 C 996.303 1223.04 970.409 1190.63 960.614 1179.96 L 960.614 1179.96 C 944.595 1160.62 924.313 1145.48 908.32 1126.47 C 914.506 1119.04 921.538 1112.65 928.632 1106.12 C 918.777 1097.45 909.744 1086.78 900.621 1077.28 L 850.885 1025.79 C 790.954 963.161 731.995 899.391 671.318 837.505 C 681.189 833.047 691.263 823.432 699.119 815.984 L 699.119 815.984 C 704.3 809.118 711.804 803.578 718.421 798.142 C 730.306 783.71 755.458 759.64 770.406 748.97 z"/>
<path transform="translate(0,0)" fill="rgb(209,112,40)" d="M 718.421 798.142 C 731.067 813.182 746.061 826.797 759.806 840.864 L 1381.82 1485.95 C 1405.29 1510.76 1430.45 1548.6 1467.42 1552.11 C 1516.71 1556.77 1490.09 1506.64 1499.31 1494.91 C 1512.18 1503.38 1554.64 1546.41 1563.21 1559.13 C 1585.37 1592.01 1573.21 1642.43 1539.42 1662.83 L 1538.62 1663.37 C 1476.28 1705.24 1432.07 1641.79 1395.75 1602.05 L 1158.12 1348.07 C 1130.68 1318.76 1044.33 1235.79 1026.85 1209.29 L 1008.02 1227.7 C 996.303 1223.04 970.409 1190.63 960.614 1179.96 L 960.614 1179.96 C 944.595 1160.62 924.313 1145.48 908.32 1126.47 C 914.506 1119.04 921.538 1112.65 928.632 1106.12 C 918.777 1097.45 909.744 1086.78 900.621 1077.28 L 850.885 1025.79 C 790.954 963.161 731.995 899.391 671.318 837.505 C 681.189 833.047 691.263 823.432 699.119 815.984 L 699.119 815.984 C 704.3 809.118 711.804 803.578 718.421 798.142 z"/>
<path transform="translate(0,0)" fill="rgb(184,93,32)" d="M 699.119 815.984 C 712.731 832.47 719.894 840.621 735.076 856.59 L 1412.2 1569.16 C 1440.31 1599.02 1465.6 1638.57 1506.23 1652.16 C 1513.07 1654.45 1539.67 1654.41 1539.42 1662.83 L 1538.62 1663.37 C 1476.28 1705.24 1432.07 1641.79 1395.75 1602.05 L 1158.12 1348.07 C 1130.68 1318.76 1044.33 1235.79 1026.85 1209.29 L 1008.02 1227.7 C 996.303 1223.04 970.409 1190.63 960.614 1179.96 L 960.614 1179.96 C 944.595 1160.62 924.313 1145.48 908.32 1126.47 C 914.506 1119.04 921.538 1112.65 928.632 1106.12 C 918.777 1097.45 909.744 1086.78 900.621 1077.28 L 850.885 1025.79 C 790.954 963.161 731.995 899.391 671.318 837.505 C 681.189 833.047 691.263 823.432 699.119 815.984 L 699.119 815.984 z"/>
<path transform="translate(0,0)" fill="rgb(166,81,29)" d="M 928.632 1106.12 C 942.868 1122.9 968.669 1143.86 979.866 1160.37 C 973.525 1166.88 966.626 1173.18 960.614 1179.96 L 960.614 1179.96 C 944.595 1160.62 924.313 1145.48 908.32 1126.47 C 914.506 1119.04 921.538 1112.65 928.632 1106.12 z"/>
<path transform="translate(0,0)" fill="rgb(132,82,55)" d="M 979.866 1160.37 C 990.048 1170.78 1020.97 1199.57 1026.85 1209.29 L 1008.02 1227.7 C 996.303 1223.04 970.409 1190.63 960.614 1179.96 C 966.626 1173.18 973.525 1166.88 979.866 1160.37 z"/>
<path transform="translate(0,0)" fill="rgb(184,93,32)" d="M 1345.27 815.984 C 1353.43 824.513 1360.98 833.724 1368.93 842.485 C 1358.83 854.926 1346.55 866.144 1335.42 877.696 L 1267.11 948.18 C 1217.37 999.683 1169.53 1053.07 1118.2 1103.02 C 1109.43 1096.94 1100.94 1086.65 1093.21 1079.1 L 1309.46 857.55 C 1322.28 844.303 1335.87 831.995 1345.27 815.984 z"/>
<path transform="translate(0,0)" fill="rgb(209,112,40)" d="M 1325.49 798.142 C 1331.8 804.482 1337.97 810.746 1345.27 815.984 L 1345.27 815.984 C 1335.87 831.995 1322.28 844.303 1309.46 857.55 L 1093.21 1079.1 C 1085.95 1074.25 1079.23 1065.81 1073.09 1059.54 L 1238 886.985 C 1266.49 857.211 1294.03 824.812 1325.49 798.142 z"/>
<path transform="translate(0,0)" fill="url(#Gradient1)" d="M 908.32 1126.47 C 924.313 1145.48 944.595 1160.62 960.614 1179.96 L 960.614 1179.96 C 970.409 1190.63 996.303 1223.04 1008.02 1227.7 C 971.642 1262.93 937.131 1300.73 902.199 1337.42 L 625.296 1631.92 C 601.092 1657.58 589.249 1678.1 550.625 1677.29 C 498.54 1676.21 454.18 1612.68 480.852 1565.19 C 489.191 1550.35 531.202 1509.57 546.771 1494.91 C 554.146 1484.77 572.37 1469.36 581.98 1459.5 L 794.772 1243.14 C 832.416 1204.12 869.692 1164.52 908.32 1126.47 z"/>
<path transform="translate(0,0)" fill="rgb(236,147,59)" d="M 908.32 1126.47 C 924.313 1145.48 944.595 1160.62 960.614 1179.96 C 934.562 1206.22 909.775 1233.52 884.142 1260.14 L 630.175 1522.65 C 617.831 1535.5 601.984 1555.98 582.528 1556.39 C 540.208 1557.28 553.968 1502.52 546.771 1494.91 C 554.146 1484.77 572.37 1469.36 581.98 1459.5 L 794.772 1243.14 C 832.416 1204.12 869.692 1164.52 908.32 1126.47 z"/>
<path transform="translate(0,0)" fill="rgb(135,155,169)" d="M 441.766 625.171 C 455.485 612.617 467.928 598.862 481.021 585.68 L 548.685 518.462 C 560.909 506.326 572.928 492.482 586.348 481.74 C 600.949 491.807 616.056 506.992 627.192 520.956 L 630.496 516.47 C 637.613 522.591 644.107 529.398 650.703 536.067 L 685.58 571.207 C 693.455 579.004 701.269 586.644 708.123 595.382 C 717.799 603.191 724.923 610.079 731.086 620.969 C 738.293 624.678 779.465 650.539 766.926 658.833 C 763.266 664.881 759.338 670.694 755.316 676.507 C 768.009 697.824 806.578 711.654 781.699 737.528 C 777.639 741.173 773.958 744.821 770.406 748.97 C 755.458 759.64 730.306 783.71 718.421 798.142 C 711.804 803.578 704.3 809.118 699.119 815.984 L 699.119 815.984 C 691.263 823.432 681.189 833.047 671.318 837.505 C 668.259 836.972 664.845 839.625 662.002 837.948 C 654.391 833.457 615.671 792.634 602.73 781.263 C 599.7 785.393 596.6 789.431 593.41 793.439 C 585.201 784.399 576.926 775.992 568.05 767.586 C 546.398 787.339 518.081 821.296 496.958 837.505 C 489.178 831.715 481.505 823.394 475.258 815.984 C 469.307 807.83 462.091 800.728 455.135 793.439 C 440.227 782.227 424.09 766.788 412.382 752.206 C 403.329 744.553 396.794 734.356 387.596 726.754 C 398.315 710.952 439.32 671.894 455.135 658.833 C 458.296 654.778 461.497 651.02 465.058 647.305 C 457.029 640.141 449.164 633.002 441.766 625.171 z"/>
<path transform="translate(0,0)" fill="rgb(182,196,204)" d="M 572.271 526.637 C 598.997 560.47 640.291 597.165 671.118 627.775 C 707.963 664.361 743.09 702.743 781.699 737.528 C 777.639 741.173 773.958 744.821 770.406 748.97 C 755.458 759.64 730.306 783.71 718.421 798.142 C 711.804 803.578 704.3 809.118 699.119 815.984 L 699.119 815.984 C 685.369 792.006 631.601 744.921 610.554 724.031 L 492.763 605.509 C 516.884 577.814 545.217 551.356 572.271 526.637 z"/>
<path transform="translate(0,0)" fill="rgb(86,59,49)" d="M 465.058 647.305 C 474.859 656.662 484.377 665.816 492.763 676.507 C 503.166 683.303 531.858 710.783 538.256 720.641 C 544.835 725.962 550.885 731.519 556.839 737.528 C 564.029 744.467 571.125 751.549 578.651 758.124 C 575.01 761.153 571.233 764.068 568.05 767.586 C 546.398 787.339 518.081 821.296 496.958 837.505 C 489.178 831.715 481.505 823.394 475.258 815.984 C 469.307 807.83 462.091 800.728 455.135 793.439 C 440.227 782.227 424.09 766.788 412.382 752.206 C 403.329 744.553 396.794 734.356 387.596 726.754 C 398.315 710.952 439.32 671.894 455.135 658.833 C 458.296 654.778 461.497 651.02 465.058 647.305 z"/>
<path transform="translate(0,0)" fill="rgb(132,82,55)" d="M 480.992 687.683 C 495.484 697.622 511.262 717.212 523.962 730.195 C 503.346 747.608 474.999 780.305 455.135 793.439 C 440.227 782.227 424.09 766.788 412.382 752.206 C 435.487 731.033 456.86 707.684 480.992 687.683 z"/>
<path transform="translate(0,0)" fill="rgb(47,34,31)" d="M 556.839 737.528 C 564.029 744.467 571.125 751.549 578.651 758.124 C 575.01 761.153 571.233 764.068 568.05 767.586 C 546.398 787.339 518.081 821.296 496.958 837.505 C 489.178 831.715 481.505 823.394 475.258 815.984 C 499.915 790.639 528.672 758.145 556.839 737.528 z"/>
<path transform="translate(0,0)" fill="rgb(47,34,31)" d="M 465.058 647.305 C 474.859 656.662 484.377 665.816 492.763 676.507 C 488.695 680.125 484.731 683.719 480.992 687.683 C 472.982 677.276 461.984 670.585 455.135 658.833 C 458.296 654.778 461.497 651.02 465.058 647.305 z"/>
<path transform="translate(0,0)" fill="rgb(182,196,204)" d="M 630.496 516.47 C 637.613 522.591 644.107 529.398 650.703 536.067 L 685.58 571.207 C 693.455 579.004 701.269 586.644 708.123 595.382 C 717.799 603.191 724.923 610.079 731.086 620.969 C 738.293 624.678 779.465 650.539 766.926 658.833 C 738.387 641.718 704.311 599.278 680.379 575.303 C 667.024 561.924 635.351 534.252 627.192 520.956 L 630.496 516.47 z"/>
<path transform="translate(0,0)" fill="rgb(56,53,53)" d="M 578.651 758.124 C 586.764 765.29 595.84 772.886 602.73 781.263 C 599.7 785.393 596.6 789.431 593.41 793.439 C 585.201 784.399 576.926 775.992 568.05 767.586 C 571.233 764.068 575.01 761.153 578.651 758.124 z"/>
<path transform="translate(0,0)" fill="rgb(182,196,204)" d="M 1465.32 481.74 C 1473.16 481.162 1601.47 608.471 1603.84 618.349 C 1602.4 631.594 1585.47 635.65 1582.17 647.305 C 1567.8 655.254 1445.09 774.476 1445.07 774.509 C 1423.52 795.901 1392.72 826.805 1368.93 842.485 C 1360.98 833.724 1353.43 824.513 1345.27 815.984 L 1345.27 815.984 C 1337.97 810.746 1331.8 804.482 1325.49 798.142 C 1309.93 781.326 1293.44 763.668 1275.87 748.97 C 1272.05 745.509 1268.87 741.474 1265.57 737.528 C 1237.58 704.082 1322.96 696.095 1284.21 658.833 C 1288.93 655.167 1293.39 651.24 1297.88 647.305 C 1304.89 638.273 1314.98 630.836 1320.84 620.969 C 1324.05 610.981 1334.48 602.656 1341.78 595.382 L 1358.44 578.336 C 1371.55 565.254 1384.97 552.46 1398.25 539.544 C 1409.61 528.808 1420.14 517.038 1432.01 506.861 C 1436.06 506.623 1456.4 484.967 1465.32 481.74 z"/>
<path transform="translate(0,0)" fill="rgb(135,155,169)" d="M 1465.32 481.74 C 1473.16 481.162 1601.47 608.471 1603.84 618.349 C 1602.4 631.594 1585.47 635.65 1582.17 647.305 C 1567.8 655.254 1445.09 774.476 1445.07 774.509 C 1423.52 795.901 1392.72 826.805 1368.93 842.485 C 1360.98 833.724 1353.43 824.513 1345.27 815.984 L 1345.27 815.984 C 1361.53 792.117 1401.01 758.066 1422.29 737.665 C 1436.22 724.314 1553.94 614.151 1551.25 604.646 C 1547.78 592.402 1492.41 536.575 1486.86 534.293 C 1470.79 527.687 1448.21 560.575 1438.84 569.821 L 1332.75 674.892 C 1317.42 690.354 1285.09 731.976 1265.57 737.528 C 1237.58 704.082 1322.96 696.095 1284.21 658.833 C 1288.93 655.167 1293.39 651.24 1297.88 647.305 C 1304.89 638.273 1314.98 630.836 1320.84 620.969 C 1324.05 610.981 1334.48 602.656 1341.78 595.382 L 1358.44 578.336 C 1371.55 565.254 1384.97 552.46 1398.25 539.544 C 1409.61 528.808 1420.14 517.038 1432.01 506.861 C 1436.06 506.623 1456.4 484.967 1465.32 481.74 z"/>
<path transform="translate(0,0)" fill="rgb(182,196,204)" d="M 1432.01 506.861 C 1436.06 506.623 1456.4 484.967 1465.32 481.74 C 1462.38 494.052 1384.17 565.275 1369.64 580.077 L 1326.05 624.607 C 1318.04 632.826 1310.33 646.51 1297.88 647.305 C 1304.89 638.273 1314.98 630.836 1320.84 620.969 C 1324.05 610.981 1334.48 602.656 1341.78 595.382 L 1358.44 578.336 C 1371.55 565.254 1384.97 552.46 1398.25 539.544 C 1409.61 528.808 1420.14 517.038 1432.01 506.861 z"/>
<path transform="translate(0,0)" fill="rgb(56,53,53)" d="M 1445.07 774.509 C 1445.09 774.476 1567.8 655.254 1582.17 647.305 C 1610.15 669.542 1639.72 709.481 1664.56 726.754 C 1702.23 691.508 1716.65 726.061 1745.73 755.003 C 1797.18 806.227 1816.11 800.808 1755.84 861.774 L 1707.12 910.564 C 1686.28 931.414 1647.82 989.671 1618.67 966.519 C 1606.16 956.577 1542.88 895.453 1536.84 884.814 C 1525.38 864.632 1542.83 852.652 1553.03 837.505 L 1508.41 791.768 C 1500.39 783.623 1492.71 774.483 1483.58 767.586 C 1474.55 773.533 1468.89 782.677 1460.6 789.463 C 1454.48 785.102 1449.76 780.382 1445.07 774.509 z"/>
<path transform="translate(0,0)" fill="rgb(132,82,55)" d="M 1516.16 720.641 C 1523.34 713.356 1545.56 686.716 1552.99 684.23 L 1553.44 685.599 L 1554.87 685.364 L 1554.22 686.528 L 1556.25 686.374 C 1581.7 707.231 1606.93 735.523 1632.16 758.124 C 1621.29 771.46 1607.63 783.072 1595.31 795.112 C 1587.81 804.646 1577.58 813.064 1569.35 822.171 C 1551.55 798.201 1516.3 761.733 1495.03 741.533 C 1502.64 735.27 1509.21 727.625 1516.16 720.641 z"/>
<path transform="translate(0,0)" fill="rgb(86,59,49)" d="M 1495.03 741.533 C 1502.64 735.27 1509.21 727.625 1516.16 720.641 C 1539.5 737.546 1570.74 774.078 1595.31 795.112 C 1587.81 804.646 1577.58 813.064 1569.35 822.171 C 1551.55 798.201 1516.3 761.733 1495.03 741.533 z"/>
<path transform="translate(0,0)" fill="rgb(56,53,53)" d="M 496.958 837.505 L 496.56 839.215 C 538.404 870.144 501.097 895.787 477.015 919.885 C 463.424 933.485 434.046 971.92 413.754 971.077 C 389.591 970.073 323.312 892.96 303.251 872.732 C 234.359 803.268 247.678 812.509 309.779 751.157 C 326.589 734.55 340.521 709.57 366.337 711.122 C 372.649 714.784 380.522 727.48 387.596 726.754 C 396.794 734.356 403.329 744.553 412.382 752.206 C 424.09 766.788 440.227 782.227 455.135 793.439 C 462.091 800.728 469.307 807.83 475.258 815.984 C 481.505 823.394 489.178 831.715 496.958 837.505 z"/>
<path transform="translate(0,0)" fill="rgb(132,82,55)" d="M 1284.21 407.055 C 1295.59 393.677 1305.22 381.787 1320.84 396.116 L 1390.1 464.501 C 1404.15 478.379 1419.13 491.914 1432.01 506.861 C 1420.14 517.038 1409.61 528.808 1398.25 539.544 C 1384.97 552.46 1371.55 565.254 1358.44 578.336 L 1341.78 595.382 C 1334.48 602.656 1324.05 610.981 1320.84 620.969 C 1301.62 609.022 1199.91 503.856 1199.65 497.182 C 1199.33 488.694 1216.7 474.521 1222.7 468.587 L 1228.52 462.737 C 1241.12 450.127 1253.47 437.35 1265.57 424.26 C 1271.54 418.083 1277.46 412.382 1284.21 407.055 z"/>
<path transform="translate(0,0)" fill="rgb(56,53,53)" d="M 1284.21 407.055 C 1295.59 393.677 1305.22 381.787 1320.84 396.116 C 1312.15 411.117 1299.23 418.428 1287.83 430.624 C 1274.43 440.466 1260.28 455.625 1249.89 468.587 C 1266.91 480.604 1349.31 560.796 1358.44 578.336 L 1341.78 595.382 C 1334.48 602.656 1324.05 610.981 1320.84 620.969 C 1301.62 609.022 1199.91 503.856 1199.65 497.182 C 1199.33 488.694 1216.7 474.521 1222.7 468.587 L 1228.52 462.737 C 1241.12 450.127 1253.47 437.35 1265.57 424.26 C 1271.54 418.083 1277.46 412.382 1284.21 407.055 z"/>
<path transform="translate(0,0)" fill="rgb(86,59,49)" d="M 1232.86 486.33 C 1237.72 479.21 1242.62 473.397 1249.89 468.587 C 1266.91 480.604 1349.31 560.796 1358.44 578.336 L 1341.78 595.382 C 1321.43 565.102 1261.19 518.839 1232.86 486.33 z"/>
<path transform="translate(0,0)" fill="rgb(86,59,49)" d="M 1320.84 396.116 L 1390.1 464.501 C 1404.15 478.379 1419.13 491.914 1432.01 506.861 C 1420.14 517.038 1409.61 528.808 1398.25 539.544 C 1381.14 530.325 1306.59 448.682 1287.83 430.624 C 1299.23 418.428 1312.15 411.117 1320.84 396.116 z"/>
<path transform="translate(0,0)" fill="rgb(56,53,53)" d="M 617.838 506.861 C 630.555 489.984 646.688 476.787 661.473 461.87 L 702.923 420.38 C 713.891 409.299 724.041 395.576 738.779 389.449 C 749.852 393.073 755.474 398.591 763.068 407.055 C 768.725 410.834 773.468 414.726 778.41 419.378 C 792.535 433.354 807.04 447.123 819.384 462.737 L 826.991 468.587 C 845.347 487.859 859.302 491.055 839.694 512.169 C 808.678 545.565 764.94 589.873 731.086 620.969 C 724.923 610.079 717.799 603.191 708.123 595.382 C 701.269 586.644 693.455 579.004 685.58 571.207 L 650.703 536.067 C 644.107 529.398 637.613 522.591 630.496 516.47 C 626.411 512.835 622.518 509.734 617.838 506.861 z"/>
<path transform="translate(0,0)" fill="rgb(132,82,55)" d="M 763.068 430.624 C 774.127 442.467 786.445 453.282 797.941 464.73 C 758.513 497.982 725.889 538.642 685.58 571.207 L 650.703 536.067 C 659.419 531.111 667.424 521.213 674.579 514.174 L 719.427 469.823 C 733.128 456.22 746.486 440.618 763.068 430.624 z"/>
<path transform="translate(0,0)" fill="rgb(86,59,49)" d="M 797.941 464.73 C 804.581 469.696 810.309 475.737 816.003 481.74 C 789.235 524.061 732.198 551.963 708.123 595.382 C 701.269 586.644 693.455 579.004 685.58 571.207 C 725.889 538.642 758.513 497.982 797.941 464.73 z"/>
<path transform="translate(0,0)" fill="rgb(182,196,204)" d="M 763.068 407.055 C 797.806 359.583 863.438 336.038 908.32 383.961 C 886.939 407.595 850.059 449.089 826.991 468.587 L 819.384 462.737 C 807.04 447.123 792.535 433.354 778.41 419.378 C 773.468 414.726 768.725 410.834 763.068 407.055 z"/>
<path transform="translate(0,0)" fill="rgb(208,221,228)" d="M 778.41 419.378 C 802.062 389.532 845.773 383.642 881.288 383.961 C 867.483 396.134 830.127 445.442 819.384 462.737 C 807.04 447.123 792.535 433.354 778.41 419.378 z"/>
<path transform="translate(0,0)" fill="rgb(182,196,204)" d="M 1142.79 383.961 C 1196.57 324.82 1238.71 379.178 1282.84 406.227 L 1284.21 407.055 C 1277.46 412.382 1271.54 418.083 1265.57 424.26 C 1253.47 437.35 1241.12 450.127 1228.52 462.737 L 1222.7 468.587 C 1206.12 452.191 1155.06 400.164 1142.79 383.961 z"/>
<path transform="translate(0,0)" fill="rgb(208,221,228)" d="M 1171.79 383.961 C 1211.13 396.568 1225.43 390.739 1265.57 424.26 C 1253.47 437.35 1241.12 450.127 1228.52 462.737 C 1213.41 438.867 1180.09 401.42 1171.79 383.961 z"/>
</svg>